#!OML:ASF E:/inclinewalkrobotboard/Project1/Captureday1/Session1/subject1.ASF
:FULLY-SPECIFIED
:DEGREES
26
root 0 0 0 45.310435395311224 -47.83123123999641 -18.664384810726947
lowerback -6.49012725213404 3.6586239486236263 -0.4781841894931623
upperback -13.505192467606614 4.368478544108196 -0.1455449131189468
thorax -11.115700887648611 2.1371565297507757 0.6100289350296002
lowerneck -11.46511930759853 6.9161497205789 4.541053040651093
upperneck 18.0440639013077 7.411824286226263 7.358558218800308
head 7.591269029689684 4.3252126112599125 2.1876540609651416
rclavicle 7.681422922912307E-16 -1.6379721655957459E-15
rhumerus 8.93583158850606 -22.4208297498773 -49.693894703348064
rradius 27.719097362628165
rwrist 22.001907493508984
rhand 0.47915754850025394 7.524914615377066
rfingers 7.125020000000024
rthumb 26.07270052638912 -19.568415894912327
lclavicle 3.37464276596509E-16 -1.0796781262359575E-15
lhumerus -10.268810010941403 6.004628342297826 47.71220314187134
lradius 33.510691974799116
lwrist -10.885189389542367
lhand -2.8831746437812757 23.99157018297482
lfingers 7.125019999999975
lthumb 22.588031375532236 51.43573160173139
rfemur 65.85227181229715 -89.48804350118876 -63.500276323592246
rtibia 40.144944877070174
rfoot -18.72342224988757 -18.864674741453634
rtoes 22.24433517306332
lfemur -46.719600673849484 8.850098002094567 -27.748427215445172
ltibia 44.68263033253989
lfoot -22.908518704178352 15.831115050214729
ltoes 11.429232104017094
27
root 0 0 0 45.244439360059275 -47.69672471005161 -18.630209839886792
lowerback -6.490024913083652 3.6479314287750024 -0.47951665339668403
upperback -13.489506381357844 4.357190551282695 -0.13364851226413466
thorax -11.09809197216288 2.13218910568852 0.6223477835054425
lowerneck -11.461372468214055 6.884937957971646 4.521070199388013
upperneck 18.07478275134084 7.374913400702809 7.3416849164487346
head 7.602133690086177 4.305325368145271 2.1820474517239252
rclavicle 7.978059527868528E-16 -1.669913583976495E-15
rhumerus 8.772240100485513 -22.442066224074242 -49.44215728771503
rradius 27.75251289446887
rwrist 21.891023358183514
rhand 0.5580488089495343 7.482980719942561
rfingers 7.125020000000026
rthumb 26.155368595513092 -19.59983391993069
lclavicle 4.608441182826209E-16 -1.0616309170712556E-15
lhumerus -10.321189447628923 5.762596914729278 48.14914586575115
lradius 33.744594791223015
lwrist -10.528480218108571
lhand -2.77323857606647 23.915054629978584
lfingers 7.125019999999975
lthumb 22.675739225877948 51.33103994045308
rfemur 64.88310419676745 -88.42553933372828 -62.454276134875784
rtibia 40.154655137180875
rfoot -18.6737286159593 -18.741489434134557
rtoes 22.152269926084976
lfemur -46.48310045614198 8.775315107584575 -27.67430135434627
ltibia 44.607680473413545
lfoot -22.891648727622005 15.72113904646232
ltoes 11.363101478729249
28
root 0 0 0 45.189681982710354 -47.532218941057096 -18.59680293885552
lowerback -6.503763508142438 3.6346538065021585 -0.48055901985880245
upperback -13.478129141090687 4.344159826382045 -0.11652236714972819
thorax -11.07743166986257 2.126566359914065 0.6405351016880139
lowerneck -11.451391238443136 6.845884571760991 4.4959517755386145
upperneck 18.117993808291278 7.328795676355469 7.3226753135826606
head 7.616708505614888 4.28046284941351 2.175531900251637
rclavicle 8.352487922369412E-16 -1.7119422777070939E-15
rhumerus 8.596655027525559 -22.470286396911384 -49.101032328468946
rradius 27.78920887648329
rwrist 21.76374869564453
rhand 0.6815774297188746 7.409902494234001
rfingers 7.125020000000028
rthumb 26.28271038215019 -19.656205369608983
lclavicle 6.268072959370647E-16 -1.0420557536755917E-15
lhumerus -10.350105501295074 5.4445605846499046 48.68666017270273
lradius 34.0701993042987
lwrist -10.06483595228191
lhand -2.5922514061985336 23.811979945731476
lfingers 7.125019999999975
lthumb 22.827510334727783 51.18495763148029
rfemur 63.841920258191934 -87.29193916557196 -61.34203506190552
rtibia 40.16642224061086
rfoot -18.626604607479265 -18.6102618353963
rtoes 22.0629510123458
lfemur -46.24929147179205 8.705751986830165 -27.584681549935524
ltibia 44.52896082531537
lfoot -22.905556941027772 15.615935811633125
ltoes 11.316491731738921
29
root 0 0 0 45.131089144538045 -47.420848550998 -18.56839145519287
lowerback -6.500597397284435 3.626568208119733 -0.48075080002316234
upperback -13.462514721218895 4.3356628608673855 -0.10749353280524598
thorax -11.061821006485161 2.1226827230598744 0.6492759096012068
lowerneck -11.45059230458645 6.819991380177048 4.47979256436584
upperneck 18.142906144239838 7.298159808827064 7.307584281275508
head 7.625763928543393 4.263937962283946 2.170595930556948
rclavicle 8.609210073050251E-16 -1.7377024514481705E-15
rhumerus 8.41747793563132 -22.486060522563506 -48.91730910232309
rradius 27.826532508794234
rwrist 21.647689630974167
rhand 0.7172464752316223 7.401207181674439
rfingers 7.1250200000000286
rthumb 26.322432217392546 -19.6608072844842
lclavicle 7.496126792045698E-16 -1.0249778781222714E-15
lhumerus -10.396057637722002 5.210444892818052 49.10758392346611
lradius 34.29852191727315
lwrist -9.721070230544587
lhand -2.482219023011094 23.737586836004404
lfingers 7.125019999999975
lthumb 22.916408198555516 51.08286325453519
rfemur 63.06176754494422 -86.4311591951268 -60.49709077389337
rtibia 40.17317945483874
rfoot -18.58470885498345 -18.50896791268497
rtoes 21.983599765059576
lfemur -46.042939706086486 8.639124102930104 -27.523296719843934
ltibia 44.463976614381636
lfoot -22.882394259984526 15.517960491135213
ltoes 11.253518668937797
30
root 0 0 0 45.080700894994706 -47.321108698877566 -18.54293601610658
lowerback -6.499122453945387 3.6187181280347445 -0.48162116113258535
upperback -13.450488518659377 4.32729365022986 -0.0988497587026047
thorax -11.049122115820854 2.1189739267322807 0.6582039894271474
lowerneck -11.448208201992049 6.797184199774607 4.465048648270949
upperneck 18.16431808666394 7.271173839805158 7.295125496299168
head 7.63333898041851 4.249366357928154 2.1664746390834373
rclavicle 8.843346326971172E-16 -1.761472880889985E-15
rhumerus 8.240205259354603 -22.49909228493201 -48.757791822351365
rradius 27.864199850233586
rwrist 21.5311406927736
rhand 0.7408464807431709 7.401689759649857
rfingers 7.1250200000000286
rthumb 26.349435337834095 -19.65831208751372
lclavicle 8.639418687925117E-16 -1.0083474346049065E-15
lhumerus -10.438284065966906 4.9899820665896595 49.501018666479226
lradius 34.513705811364886
lwrist -9.397574902598425
lhand -2.3778418018593896 23.66807836558235
lfingers 7.125019999999974
lthumb 23.0003681016794 50.98707023095179
rfemur 62.37452180682638 -85.67863172033633 -59.75981295487777
rtibia 40.17962388974534
rfoot -18.553407206293357 -18.420545128310835
rtoes 21.919815540748047
lfemur -45.85822663971958 8.580228309072819 -27.466285377599228
ltibia 44.40535535564486
lfoot -22.866817826769022 15.431708969798539
ltoes 11.200555083687291
